<svg width="220" height="48" viewBox="0 0 220 48" fill="none" xmlns="http://www.w3.org/2000/svg">
  <rect width="48" height="48" rx="14" fill="url(#paint0_linear)"/>
  <path d="M14.5 29.4C14.5 33.8 17.8 37 23 37C27.8 37 31.5 34.2 31.5 30.3C31.5 26.8 28.9 24.8 24.8 23.9L21.6 23.2C19.5 22.8 18.4 21.9 18.4 20.4C18.4 18.4 20.3 17 23 17C25.8 17 27.6 18.3 28.2 20.7H32.4C31.7 15.9 27.9 13 23.1 13C18.2 13 14.4 15.9 14.4 20.3C14.4 23.8 16.9 26 21 26.9L24.1 27.6C26.4 28.1 27.5 29 27.5 30.6C27.5 32.7 25.6 34 23 34C19.8 34 17.7 32.3 17.2 29.4H14.5Z" fill="white"/>
  <path d="M66.6 28.9V16.3H70.8V28.6C70.8 32.3 72.7 34.1 76.1 34.1C79.5 34.1 81.6 32.2 81.6 28.6V16.3H85.8V28.9C85.8 34.6 82 38 76.1 38C70.4 38 66.6 34.6 66.6 28.9Z" fill="#0F172A"/>
  <path d="M92.2 37.5V16.3H96L107 30.1V16.3H111V37.5H107.3L96.2 23.6V37.5H92.2Z" fill="#0F172A"/>
  <path d="M117.9 37.5V16.3H126.7C133.4 16.3 137.8 20.4 137.8 26.9C137.8 33.4 133.4 37.5 126.7 37.5H117.9ZM122.1 33.8H126.4C130.7 33.8 133.5 31.1 133.5 26.9C133.5 22.7 130.7 20 126.4 20H122.1V33.8Z" fill="#0F172A"/>
  <path d="M143.2 37.5V16.3H157.8V20H147.4V25.2H156.9V28.7H147.4V33.8H158V37.5H143.2Z" fill="#0F172A"/>
  <path d="M163 37.5V16.3H167.2V33.7H177.4V37.5H163Z" fill="#0F172A"/>
  <defs>
    <linearGradient id="paint0_linear" x1="5.5" y1="4.5" x2="42.5" y2="43" gradientUnits="userSpaceOnUse">
      <stop stop-color="#0F4C81"/>
      <stop offset="1" stop-color="#16A34A"/>
    </linearGradient>
  </defs>
</svg>
